# Parede Vertical (50 largura, 15 altura, 2 espessura)
# Vertices (x, y, z)
v -25.0  0.0  1.0
v  25.0  0.0  1.0
v  25.0  0.0 -1.0
v -25.0  0.0 -1.0
v -25.0 15.0  1.0
v  25.0 15.0  1.0
v  25.0 15.0 -1.0
v -25.0 15.0 -1.0

# UVs
vt 0.0 0.0
vt 1.0 0.0
vt 1.0 1.0
vt 0.0 1.0

# Normais
vn  0.0  0.0  1.0
vn  0.0  0.0 -1.0
vn -1.0  0.0  0.0
vn  1.0  0.0  0.0
vn  0.0  1.0  0.0
vn  0.0 -1.0  0.0

# Faces
f 1/1/1 2/2/1 6/3/1
f 1/1/1 6/3/1 5/4/1
f 3/1/2 4/2/2 8/3/2
f 3/1/2 8/3/2 7/4/2
f 4/1/3 1/2/3 5/3/3
f 4/1/3 5/3/3 8/4/3
f 2/1/4 3/2/4 7/3/4
f 2/1/4 7/3/4 6/4/4
f 5/1/5 6/2/5 7/3/5
f 5/1/5 7/3/5 8/4/5
f 4/1/6 3/2/6 2/3/6
f 4/1/6 2/3/6 1/4/6