# Vertices
v -25.0  0.0  25.0
v  25.0  0.0  25.0
v  25.0  0.0 -25.0
v -25.0  0.0 -25.0
v -25.0 -0.2  25.0
v  25.0 -0.2  25.0
v  25.0 -0.2 -25.0
v -25.0 -0.2 -25.0

# UVs
vt 0.0 0.0
vt 1.0 0.0
vt 1.0 1.0
vt 0.0 1.0

# Normais
vn  0.0  1.0  0.0
vn  0.0 -1.0  0.0
vn  0.0  0.0  1.0
vn  0.0  0.0 -1.0
vn  1.0  0.0  0.0
vn -1.0  0.0  0.0

# Faces
f 1/1/1 2/2/1 3/3/1
f 1/1/1 3/3/1 4/4/1
f 5/1/2 8/4/2 7/3/2
f 5/1/2 7/3/2 6/2/2
f 1/1/3 5/4/3 6/3/3
f 1/1/3 6/3/3 2/2/3
f 3/1/4 7/4/4 8/3/4
f 3/1/4 8/3/4 4/2/4
f 2/1/5 6/4/5 7/3/5
f 2/1/5 7/3/5 3/2/5
f 4/1/6 8/4/6 5/3/6
f 4/1/6 5/3/6 1/2/6